<svg id="Layer" enable-background="new 0 0 64 64" height="512" viewBox="0 0 64 64" width="512" xmlns="http://www.w3.org/2000/svg" style="fill:white;"><path d="m32 8c-13.233 0-24 10.767-24 24v23c0 .553.447 1 1 1s1-.447 1-1v-14.025c.838.634 1.87 1.025 3 1.025s2.162-.391 3-1.025v6.025 8c0 .553.447 1 1 1s1-.447 1-1v-7h17c.553 0 1-.447 1-1s-.447-1-1-1h-17v-12h28v12h-5c-.553 0-1 .447-1 1s.447 1 1 1h5v7c0 .553.447 1 1 1s1-.447 1-1v-8-6.025c.838.634 1.87 1.025 3 1.025s2.162-.391 3-1.025v14.025c0 .553.447 1 1 1s1-.447 1-1v-23c0-13.233-10.767-24-24-24zm22 24v1.025c-.838-.634-1.87-1.025-3-1.025s-2.162.391-3 1.025v-.025-1c0-7.576-5.298-13.924-12.38-15.571.85-.897 1.38-2.099 1.38-3.429 0-.948-.28-1.826-.74-2.583 10.098 1.99 17.74 10.909 17.74 21.583zm-25-19c0-1.654 1.346-3 3-3s3 1.346 3 3-1.346 3-3 3-3-1.346-3-3zm1 5.16c.655-.094 1.319-.16 2-.16s1.345.065 2 .16v6.155c-.539-.182-1.205-.315-2-.315s-1.461.133-2 .315zm-2.26-7.743c-.46.757-.74 1.635-.74 2.583 0 1.33.53 2.532 1.38 3.429-7.082 1.647-12.38 7.995-12.38 15.571v1 .025c-.838-.634-1.87-1.025-3-1.025s-2.162.391-3 1.025v-1.025c0-10.674 7.642-19.593 17.74-21.583zm-14.74 29.583c-1.654 0-3-1.346-3-3s1.346-3 3-3 3 1.346 3 3-1.346 3-3 3zm5-8c0-6.329 4.225-11.685 10-13.41v7.41c0 .398.243.752.608.911.366.16.797.079 1.087-.193.032-.029.786-.718 2.305-.718s2.273.689 2.293.707c.191.191.447.293.707.293.129 0 .259-.025.383-.076.374-.155.617-.52.617-.924v-7.41c5.775 1.726 10 7.081 10 13.41zm33 8c-1.654 0-3-1.346-3-3s1.346-3 3-3 3 1.346 3 3-1.346 3-3 3z"/><path d="m44 43v-6c0-.553-.447-1-1-1h-22c-.553 0-1 .447-1 1v6c0 .553.447 1 1 1h22c.553 0 1-.447 1-1zm-2-1h-20v-4h20z"/><circle cx="38" cy="47" r="1"/></svg>