<?xml version="1.0" encoding="iso-8859-1"?>
<!-- Generator: Adobe Illustrator 17.1.0, SVG Export Plug-In . SVG Version: 6.00 Build 0)  -->
<!DOCTYPE svg PUBLIC "-//W3C//DTD SVG 1.1//EN" "http://www.w3.org/Graphics/SVG/1.1/DTD/svg11.dtd">
<svg version="1.1" id="Capa_1" xmlns="http://www.w3.org/2000/svg" xmlns:xlink="http://www.w3.org/1999/xlink" x="0px" y="0px"
	 viewBox="0 0 212 212" style="enable-background:new 0 0 212 212; fill:white" xml:space="preserve">
<path d="M192.077,212H19.923c-1.104,0-2-0.896-2-2v-36.406c0-4.085,3.323-7.408,7.408-7.408h1.205V79.464
	C26.536,35.647,62.183,0,106,0s79.464,35.647,79.464,79.464v86.722h1.205c4.085,0,7.408,3.323,7.408,7.408V210
	C194.077,211.104,193.181,212,192.077,212z M156.783,208h33.293v-34.406c0-1.879-1.529-3.408-3.408-3.408h-29.885V208z M21.923,208
	h33.293v-37.814H25.331c-1.879,0-3.408,1.529-3.408,3.408V208z M59.217,207.464h93.567v-95.887h-9.902c-1.104,0-2-0.896-2-2V108
	h-25.657c-0.27,2.779-2.619,4.96-5.468,4.96h-8.119c-2.849,0-5.199-2.181-5.468-4.96H70.511v1.577c0,1.104-0.896,2-2,2h-9.294
	V207.464z M172.782,166.186h8.681v-54.608h-8.681V166.186z M156.783,166.186h11.999v-54.607h-11.999V166.186z M43.218,166.186
	h11.999v-54.607H43.218V166.186z M30.536,166.186h8.682v-54.608h-8.682V166.186z M101.638,89.46c-0.824,0-1.494,0.67-1.494,1.493
	v16.513c0,0.824,0.67,1.494,1.494,1.494h8.119c0.824,0,1.494-0.67,1.494-1.494V90.953c0-0.823-0.67-1.493-1.494-1.493H101.638z
	 M156.783,107.577h24.68v-6.367h-24.68V107.577z M144.881,107.577h7.902v-6.367h-7.902V107.577z M59.217,107.577h7.294v-6.367
	h-7.294V107.577z M30.536,107.577h24.681v-6.367H30.536V107.577z M115.25,104h25.631v-9.581H115.25V104z M70.511,104h25.631v-9.581
	H70.511V104z M156.783,97.21h24.68v-6.368h-24.68V97.21z M144.881,97.21h7.902v-6.368h-7.902V97.21z M59.217,97.21h7.294v-6.368
	h-7.294V97.21z M30.536,97.21h24.681v-6.368H30.536V97.21z M115.224,90.419h25.657v-1.577c0-1.104,0.896-2,2-2h9.902v-2.669
	c0-25.796-20.987-46.783-46.783-46.783S59.217,58.377,59.217,84.173v2.669h9.294c1.104,0,2,0.896,2,2v1.577H96.17
	c0.27-2.779,2.619-4.959,5.468-4.959h8.119C112.606,85.46,114.955,87.64,115.224,90.419z M172.782,86.842h8.681v-7.378
	C181.464,37.853,147.611,4,106,4C64.389,4,30.536,37.853,30.536,79.464v7.378h8.682V80.32c0-36.824,29.958-66.783,66.782-66.783
	c36.824,0,66.783,29.959,66.783,66.783V86.842z M156.783,86.842h11.999V80.32c0-34.619-28.164-62.783-62.783-62.783
	c-34.618,0-62.782,28.164-62.782,62.783v6.521h11.999v-2.669c0-28.002,22.781-50.783,50.783-50.783
	c28.002,0,50.784,22.781,50.784,50.783V86.842z M107.562,192.165h-3.732c-15.361,0-27.858-12.497-27.858-27.858v-42.782
	c0-1.104,0.896-2,2-2h55.449c1.104,0,2,0.896,2,2v42.782C135.421,179.668,122.924,192.165,107.562,192.165z M103.552,188.163
	c0.093,0.001,0.185,0.002,0.278,0.002h3.732c0.082,0,0.165,0,0.247-0.001l4.535-4.535l-6.664-6.663l-6.663,6.663L103.552,188.163z
	 M115.172,186.457l-0.682,0.683c0.346-0.105,0.688-0.218,1.027-0.338L115.172,186.457z M95.853,186.794
	c0.332,0.117,0.666,0.229,1.004,0.332l-0.668-0.669L95.853,186.794z M118.001,183.629l1.392,1.392
	c2.763-1.584,5.179-3.704,7.108-6.218l-1.837-1.837L118.001,183.629z M84.879,178.785c1.926,2.515,4.342,4.638,7.102,6.224
	l1.38-1.38l-6.663-6.663L84.879,178.785z M89.526,174.138l6.663,6.663l6.664-6.664l-6.664-6.663L89.526,174.138z M108.509,174.137
	l6.663,6.663l6.663-6.663l-6.663-6.663L108.509,174.137z M127.492,174.137l1.214,1.215c0.685-1.307,1.252-2.684,1.688-4.117
	L127.492,174.137z M81.011,171.279c0.432,1.41,0.991,2.766,1.664,4.052l1.194-1.193L81.011,171.279z M80.034,164.646l6.663,6.663
	l6.664-6.663l-6.664-6.663L80.034,164.646z M118.001,164.646l6.663,6.663l6.663-6.663l-6.663-6.663L118.001,164.646z
	 M99.017,164.646l6.663,6.663l6.664-6.663l-6.664-6.663L99.017,164.646z M89.526,155.153l6.663,6.664l6.664-6.664l-6.664-6.663
	L89.526,155.153z M108.509,155.153l6.663,6.664l6.664-6.664l-6.664-6.663L108.509,155.153z M127.492,155.153l3.928,3.929v-7.856
	L127.492,155.153z M79.972,151.257v7.794l3.896-3.897L79.972,151.257z M118.001,145.662l6.663,6.663l6.663-6.663l-6.663-6.664
	L118.001,145.662z M80.034,145.662l6.663,6.663l6.663-6.663l-6.663-6.664L80.034,145.662z M99.017,145.662l6.663,6.663l6.664-6.663
	l-6.664-6.664L99.017,145.662z M108.509,136.17l6.663,6.663l6.663-6.663l-0.648-0.648h-12.029L108.509,136.17z M89.526,136.17
	l6.663,6.663l6.663-6.663l-0.648-0.648H90.174L89.526,136.17z M127.492,136.17l3.929,3.929v-4.577h-3.28L127.492,136.17z
	 M79.972,135.521v4.546l3.897-3.897l-0.649-0.648H79.972z M127.321,131.521h4.1v-7.997H79.972v7.997h4.068c0.006,0,0.011,0,0.017,0
	h5.286c0.001,0,0.004,0,0.005,0h13.676c0.006,0,0.011,0,0.017,0h5.28c0.006,0,0.011,0,0.017,0h13.676c0.001,0,0.004,0,0.005,0h5.286
	C127.31,131.521,127.315,131.521,127.321,131.521z M139.186,82.883h-66.98c-0.549,0-1.074-0.226-1.452-0.624
	c-0.377-0.398-0.575-0.935-0.545-1.482c1.006-18.851,16.594-33.617,35.487-33.617s34.48,14.767,35.487,33.617
	c0.029,0.548-0.168,1.084-0.545,1.482C140.26,82.657,139.735,82.883,139.186,82.883z M74.386,78.883h62.621
	c-1.888-15.708-15.254-27.724-31.311-27.724S76.274,63.175,74.386,78.883z"/>
<g>
</g>
<g>
</g>
<g>
</g>
<g>
</g>
<g>
</g>
<g>
</g>
<g>
</g>
<g>
</g>
<g>
</g>
<g>
</g>
<g>
</g>
<g>
</g>
<g>
</g>
<g>
</g>
<g>
</g>
</svg>
